<mxfile host="app.diagrams.net" agent="Mozilla/5.0 (Windows NT 10.0; Win64; x64) AppleWebKit/537.36 (KHTML, like Gecko) Chrome/134.0.0.0 Safari/537.36" version="26.2.7">
  <diagram name="Page-1" id="Z-NXWbpDcsxZ2G3DGt9v">
    <mxGraphModel dx="788" dy="851" grid="0" gridSize="10" guides="1" tooltips="1" connect="1" arrows="1" fold="1" page="0" pageScale="1" pageWidth="850" pageHeight="1100" math="0" shadow="0">
      <root>
        <mxCell id="0" />
        <mxCell id="1" parent="0" />
        <mxCell id="hDW1DZ3tt0L84MmKZY6u-7" value="" style="curved=1;startArrow=none;endArrow=block;exitX=0;exitY=0.75;entryX=0.5;entryY=0;rounded=0;exitDx=0;exitDy=0;fontFamily=Times New Roman;fontStyle=1;fontSize=15;" edge="1" parent="1" source="hDW1DZ3tt0L84MmKZY6u-14">
          <mxGeometry relative="1" as="geometry">
            <Array as="points">
              <mxPoint x="131" y="99" />
            </Array>
            <mxPoint x="335" y="58.879999999999995" as="sourcePoint" />
            <mxPoint x="131" y="124" as="targetPoint" />
          </mxGeometry>
        </mxCell>
        <mxCell id="hDW1DZ3tt0L84MmKZY6u-8" value="" style="curved=1;startArrow=none;endArrow=block;exitX=0.5;exitY=1;entryX=0.5;entryY=0;rounded=0;fontFamily=Times New Roman;fontStyle=1;fontSize=15;" edge="1" parent="1">
          <mxGeometry relative="1" as="geometry">
            <Array as="points" />
            <mxPoint x="396" y="74" as="sourcePoint" />
            <mxPoint x="396.5" y="124" as="targetPoint" />
          </mxGeometry>
        </mxCell>
        <mxCell id="hDW1DZ3tt0L84MmKZY6u-9" value="" style="curved=1;startArrow=none;endArrow=block;exitX=1;exitY=0.75;entryX=0.5;entryY=0;rounded=0;exitDx=0;exitDy=0;fontFamily=Times New Roman;fontStyle=1;fontSize=15;" edge="1" parent="1" source="hDW1DZ3tt0L84MmKZY6u-14">
          <mxGeometry relative="1" as="geometry">
            <Array as="points">
              <mxPoint x="650" y="99" />
            </Array>
            <mxPoint x="457" y="59.176470588235304" as="sourcePoint" />
            <mxPoint x="650" y="124" as="targetPoint" />
          </mxGeometry>
        </mxCell>
        <mxCell id="hDW1DZ3tt0L84MmKZY6u-10" value="" style="curved=1;startArrow=none;endArrow=block;exitX=0.53;exitY=1;entryX=0.5;entryY=0;rounded=0;fontFamily=Times New Roman;fontStyle=1;fontSize=15;" edge="1" parent="1">
          <mxGeometry relative="1" as="geometry">
            <Array as="points">
              <mxPoint x="660" y="203" />
            </Array>
            <mxPoint x="655.94" y="178" as="sourcePoint" />
            <mxPoint x="660.5" y="240" as="targetPoint" />
          </mxGeometry>
        </mxCell>
        <mxCell id="hDW1DZ3tt0L84MmKZY6u-11" value="" style="curved=1;startArrow=none;endArrow=block;exitX=0.925;exitY=1;entryX=0;entryY=0.37;rounded=0;exitDx=0;exitDy=0;exitPerimeter=0;fontFamily=Times New Roman;fontStyle=1;fontSize=15;" edge="1" parent="1" source="hDW1DZ3tt0L84MmKZY6u-15">
          <mxGeometry relative="1" as="geometry">
            <Array as="points">
              <mxPoint x="131" y="203" />
            </Array>
            <mxPoint x="131" y="178" as="sourcePoint" />
            <mxPoint x="356" y="355.1600000000001" as="targetPoint" />
          </mxGeometry>
        </mxCell>
        <mxCell id="hDW1DZ3tt0L84MmKZY6u-12" value="" style="curved=1;startArrow=none;endArrow=block;exitX=0.5;exitY=1;entryX=0.5;entryY=0;rounded=0;exitDx=0;exitDy=0;fontFamily=Times New Roman;fontStyle=1;fontSize=15;" edge="1" parent="1" source="hDW1DZ3tt0L84MmKZY6u-16">
          <mxGeometry relative="1" as="geometry">
            <Array as="points" />
            <mxPoint x="396.5" y="178" as="sourcePoint" />
            <mxPoint x="396.5" y="330" as="targetPoint" />
          </mxGeometry>
        </mxCell>
        <mxCell id="hDW1DZ3tt0L84MmKZY6u-13" value="" style="curved=1;startArrow=none;endArrow=block;exitX=0.19;exitY=1;entryX=1;entryY=0.25;rounded=0;fontFamily=Times New Roman;fontStyle=1;fontSize=15;" edge="1" parent="1">
          <mxGeometry relative="1" as="geometry">
            <Array as="points">
              <mxPoint x="533" y="203" />
            </Array>
            <mxPoint x="588.6199999999999" y="178" as="sourcePoint" />
            <mxPoint x="437" y="347" as="targetPoint" />
          </mxGeometry>
        </mxCell>
        <mxCell id="hDW1DZ3tt0L84MmKZY6u-14" value="" style="image;aspect=fixed;perimeter=ellipsePerimeter;html=1;align=center;shadow=0;dashed=0;spacingTop=3;image=img/lib/active_directory/laptop_client.svg;fontFamily=Times New Roman;fontStyle=1;fontSize=15;" vertex="1" parent="1">
          <mxGeometry x="356" y="-20" width="80" height="88.89" as="geometry" />
        </mxCell>
        <mxCell id="hDW1DZ3tt0L84MmKZY6u-15" value="" style="image;aspect=fixed;html=1;points=[];align=center;fontSize=15;image=img/lib/azure2/identity/Multi_Factor_Authentication.svg;fontFamily=Times New Roman;fontStyle=1" vertex="1" parent="1">
          <mxGeometry x="90" y="130" width="80" height="80" as="geometry" />
        </mxCell>
        <mxCell id="hDW1DZ3tt0L84MmKZY6u-16" value="" style="shape=image;html=1;verticalAlign=top;verticalLabelPosition=bottom;labelBackgroundColor=#ffffff;imageAspect=0;aspect=fixed;image=https://cdn4.iconfinder.com/data/icons/education-and-school-glyph-24-px/24/Book_catalog_education_learning_book_reading-128.png;fontFamily=Times New Roman;fontStyle=1;fontSize=15;" vertex="1" parent="1">
          <mxGeometry x="341.5" y="100" width="110" height="110" as="geometry" />
        </mxCell>
        <mxCell id="hDW1DZ3tt0L84MmKZY6u-17" value="" style="sketch=0;pointerEvents=1;shadow=0;dashed=0;html=1;strokeColor=none;fillColor=#005F4B;labelPosition=center;verticalLabelPosition=bottom;verticalAlign=top;align=center;outlineConnect=0;shape=mxgraph.veeam2.vbr_transaction_log_backup;fontFamily=Times New Roman;fontStyle=1;fontSize=15;" vertex="1" parent="1">
          <mxGeometry x="590" y="130" width="100" height="54.5" as="geometry" />
        </mxCell>
        <mxCell id="hDW1DZ3tt0L84MmKZY6u-18" value="" style="html=1;strokeWidth=1;shadow=0;dashed=0;shape=mxgraph.ios7.misc.notification;fillColor=#FF3B2F;strokeColor=none;buttonText=;strokeColor2=#222222;fontColor=#222222;fontSize=15;verticalLabelPosition=bottom;verticalAlign=top;align=center;sketch=0;fontFamily=Times New Roman;fontStyle=1" vertex="1" parent="1">
          <mxGeometry x="620" y="240" width="90" height="47" as="geometry" />
        </mxCell>
        <mxCell id="hDW1DZ3tt0L84MmKZY6u-19" value="" style="image;html=1;image=img/lib/clip_art/computers/Database_Add_128x128.png;fontFamily=Times New Roman;fontStyle=1;fontSize=15;" vertex="1" parent="1">
          <mxGeometry x="360" y="330" width="80" height="80" as="geometry" />
        </mxCell>
        <mxCell id="hDW1DZ3tt0L84MmKZY6u-20" value="Client UI" style="text;html=1;align=center;verticalAlign=middle;resizable=0;points=[];autosize=1;strokeColor=none;fillColor=none;fontFamily=Times New Roman;fontStyle=1;fontSize=15;" vertex="1" parent="1">
          <mxGeometry x="368" y="-50" width="74" height="30" as="geometry" />
        </mxCell>
        <mxCell id="hDW1DZ3tt0L84MmKZY6u-21" value="Authentication Module" style="text;html=1;align=center;verticalAlign=middle;resizable=0;points=[];autosize=1;strokeColor=none;fillColor=none;fontFamily=Times New Roman;fontStyle=1;fontSize=15;" vertex="1" parent="1">
          <mxGeometry x="11" y="216" width="158" height="30" as="geometry" />
        </mxCell>
        <mxCell id="hDW1DZ3tt0L84MmKZY6u-23" value="Book Catalog Module" style="text;html=1;align=center;verticalAlign=middle;resizable=0;points=[];autosize=1;strokeColor=none;fillColor=none;fontFamily=Times New Roman;fontStyle=1;fontSize=15;" vertex="1" parent="1">
          <mxGeometry x="224" y="210" width="151" height="30" as="geometry" />
        </mxCell>
        <mxCell id="hDW1DZ3tt0L84MmKZY6u-25" value="Transaction Module" style="text;html=1;align=center;verticalAlign=middle;resizable=0;points=[];autosize=1;strokeColor=none;fillColor=none;fontFamily=Times New Roman;fontStyle=1;fontSize=15;" vertex="1" parent="1">
          <mxGeometry x="669" y="190" width="139" height="30" as="geometry" />
        </mxCell>
        <mxCell id="hDW1DZ3tt0L84MmKZY6u-26" value="Notification Module" style="text;html=1;align=center;verticalAlign=middle;resizable=0;points=[];autosize=1;strokeColor=none;fillColor=none;fontFamily=Times New Roman;fontStyle=1;fontSize=15;" vertex="1" parent="1">
          <mxGeometry x="598" y="298" width="141" height="30" as="geometry" />
        </mxCell>
        <mxCell id="hDW1DZ3tt0L84MmKZY6u-27" value="Database" style="text;html=1;align=center;verticalAlign=middle;resizable=0;points=[];autosize=1;strokeColor=none;fillColor=none;fontFamily=Times New Roman;fontStyle=1;fontSize=15;" vertex="1" parent="1">
          <mxGeometry x="359" y="425" width="73" height="30" as="geometry" />
        </mxCell>
      </root>
    </mxGraphModel>
  </diagram>
</mxfile>
